G71*
G90*
G04 Quadcept GERBER*
%MOMM*%
%FSLAX44Y44*%
%ADD10C,0.2*%
G54D10*
G01X1496954Y2182861D02*
G01Y2179254D01*
G01X1521846Y2200539D02*
G01Y2204146D01*
G01X1518239D01*
G01X1496954Y2204146D02*
G01Y2200539D01*
G01X1496954Y2179254D02*
G01X1500561D01*
G01X1521846Y2179254D02*
G01Y2182861D01*
G01X1518239Y2179254D02*
G01X1521846D01*
G01X1500561Y2204146D02*
G01X1496954D01*
G75*
G01X1546159Y2009200D02*
G03I-0762J0000D01*
G01X1445011Y2086852D02*
G01X1418487D01*
G01X1486479Y1995594D02*
G01X1441521D01*
G01X1441521Y1964606D02*
G01X1486479D01*
G01X1467048Y1964606D02*
G03X1460952Y1964606I-3048J0000D01*
G01X1275760Y2054900D02*
G03I-3810J0000D01*
G01X1265600Y2016800D02*
G01X1316400D01*
G01X1658900Y1974809D02*
G01Y1962109D01*
G01X1652550Y1964649D02*
G01X1665250D01*
G01X1658900Y1964649D02*
G01X1652550Y1972269D01*
G01X1658900Y1964649D02*
G01X1653820Y1972269D01*
G01X1658900Y1964649D02*
G01X1655090Y1972269D01*
G01X1658900Y1964649D02*
G01X1656360Y1972269D01*
G01X1658900Y1964649D02*
G01X1657630Y1972269D01*
G01X1658900Y1964649D02*
G01X1665250Y1972269D01*
G01X1658900Y1964649D02*
G01X1663980Y1972269D01*
G01X1658900Y1964649D02*
G01X1662710Y1972269D01*
G01X1658900Y1964649D02*
G01X1661440Y1972269D01*
G01X1658900Y1964649D02*
G01X1660170Y1972269D01*
G01X1652550Y1972269D02*
G01X1665250D01*
G01X1684681Y2004400D02*
G03I-25781J0000D01*
G01X1478514Y2225100D02*
G01Y2215500D01*
G01X1486286D01*
G01X1492189Y2225100D02*
G01Y2215500D01*
G01X1492189Y2225100D02*
G01X1500601D01*
G01X1492189Y2220529D02*
G01X1497360D01*
G01X1492189Y2215500D02*
G01X1500601D01*
G01X1505864Y2225100D02*
G01Y2215500D01*
G01X1505864Y2225100D02*
G01X1510395D01*
G01X1512335Y2224643D01*
G01X1513625Y2223729D01*
G01X1514276Y2222814D01*
G01X1514926Y2221443D01*
G01Y2219157D01*
G01X1514276Y2217786D01*
G01X1513625Y2216871D01*
G01X1512335Y2215957D01*
G01X1510395Y2215500D01*
G01X1505864D01*
G01X1521754Y2223271D02*
G01X1523227Y2223729D01*
G01X1524395Y2225100D01*
G01Y2215500D01*
G01X1521683Y2215500D02*
G01X1527117D01*
G01X1504514Y2030600D02*
G01Y2021000D01*
G01X1512286D01*
G01X1518189Y2030600D02*
G01Y2021000D01*
G01X1518189Y2030600D02*
G01X1526601D01*
G01X1518189Y2026029D02*
G01X1523360D01*
G01X1518189Y2021000D02*
G01X1526601D01*
G01X1531864Y2030600D02*
G01Y2021000D01*
G01X1531864Y2030600D02*
G01X1536395D01*
G01X1538335Y2030143D01*
G01X1539625Y2029229D01*
G01X1540276Y2028314D01*
G01X1540926Y2026943D01*
G01Y2024657D01*
G01X1540276Y2023286D01*
G01X1539625Y2022371D01*
G01X1538335Y2021457D01*
G01X1536395Y2021000D01*
G01X1531864D01*
G01X1546504Y2028314D02*
G01Y2028771D01*
G01X1547154Y2029686D01*
G01X1547804Y2030143D01*
G01X1549095Y2030600D01*
G01X1551685D01*
G01X1552985Y2030143D01*
G01X1553625Y2029686D01*
G01X1554276Y2028771D01*
G01Y2027857D01*
G01X1553625Y2026943D01*
G01X1552335Y2025571D01*
G01X1545864Y2021000D01*
G01X1554926D01*
G01X1680464Y2120400D02*
G01Y2110800D01*
G01X1680464Y2120400D02*
G01X1686285D01*
G01X1688225Y2119943D01*
G01X1688876Y2119486D01*
G01X1689526Y2118571D01*
G01Y2117657D01*
G01X1688876Y2116743D01*
G01X1688225Y2116286D01*
G01X1686285Y2115829D01*
G01X1680464D01*
G01X1684995Y2115829D02*
G01X1689526Y2110800D01*
G01X1696354Y2118571D02*
G01X1697827Y2119029D01*
G01X1698995Y2120400D01*
G01Y2110800D01*
G01X1696283Y2110800D02*
G01X1701717D01*
G01X1765564Y1960300D02*
G01Y1950700D01*
G01X1765564Y1960300D02*
G01X1771385D01*
G01X1773325Y1959843D01*
G01X1773976Y1959386D01*
G01X1774626Y1958471D01*
G01Y1957557D01*
G01X1773976Y1956643D01*
G01X1773325Y1956186D01*
G01X1771385Y1955729D01*
G01X1765564D01*
G01X1770095Y1955729D02*
G01X1774626Y1950700D01*
G01X1780204Y1958014D02*
G01Y1958471D01*
G01X1780854Y1959386D01*
G01X1781504Y1959843D01*
G01X1782795Y1960300D01*
G01X1785385D01*
G01X1786685Y1959843D01*
G01X1787325Y1959386D01*
G01X1787976Y1958471D01*
G01Y1957557D01*
G01X1787325Y1956643D01*
G01X1786035Y1955271D01*
G01X1779564Y1950700D01*
G01X1788626D01*
G01X1393664Y2111900D02*
G01Y2102300D01*
G01X1393664Y2111900D02*
G01X1399485D01*
G01X1401425Y2111443D01*
G01X1402076Y2110986D01*
G01X1402726Y2110071D01*
G01Y2109157D01*
G01X1402076Y2108243D01*
G01X1401425Y2107786D01*
G01X1399485Y2107329D01*
G01X1393664D01*
G01X1398195Y2107329D02*
G01X1402726Y2102300D01*
G01X1408954Y2111900D02*
G01X1416076D01*
G01X1412195Y2108243D01*
G01X1414135D01*
G01X1415425Y2107786D01*
G01X1416076Y2107329D01*
G01X1416726Y2105957D01*
G01Y2105043D01*
G01X1416076Y2103671D01*
G01X1414785Y2102757D01*
G01X1412835Y2102300D01*
G01X1410895D01*
G01X1408954Y2102757D01*
G01X1408304Y2103214D01*
G01X1407664Y2104129D01*
G01X1561764Y2080600D02*
G01Y2071000D01*
G01X1561764Y2080600D02*
G01X1567585D01*
G01X1569525Y2080143D01*
G01X1570176Y2079686D01*
G01X1570826Y2078771D01*
G01Y2077857D01*
G01X1570176Y2076943D01*
G01X1569525Y2076486D01*
G01X1567585Y2076029D01*
G01X1561764D01*
G01X1566295Y2076029D02*
G01X1570826Y2071000D01*
G01X1582662Y2080600D02*
G01X1576059Y2073895D01*
G01X1584541D01*
G01X1582662Y2080600D02*
G01Y2071000D01*
G01X1469464Y1935500D02*
G01Y1928643D01*
G01X1470104Y1927271D01*
G01X1471404Y1926357D01*
G01X1473345Y1925900D01*
G01X1474635D01*
G01X1476585Y1926357D01*
G01X1477876Y1927271D01*
G01X1478526Y1928643D01*
G01Y1935500D01*
G01X1485354Y1933671D02*
G01X1486827Y1934129D01*
G01X1487995Y1935500D01*
G01Y1925900D01*
G01X1485283Y1925900D02*
G01X1490717D01*
G01X1234264Y2053600D02*
G01Y2046743D01*
G01X1234904Y2045371D01*
G01X1236204Y2044457D01*
G01X1238145Y2044000D01*
G01X1239435D01*
G01X1241385Y2044457D01*
G01X1242676Y2045371D01*
G01X1243326Y2046743D01*
G01Y2053600D01*
G01X1248904Y2051314D02*
G01Y2051771D01*
G01X1249554Y2052686D01*
G01X1250204Y2053143D01*
G01X1251495Y2053600D01*
G01X1254085D01*
G01X1255385Y2053143D01*
G01X1256025Y2052686D01*
G01X1256676Y2051771D01*
G01Y2050857D01*
G01X1256025Y2049943D01*
G01X1254735Y2048571D01*
G01X1248264Y2044000D01*
G01X1257326D01*
G01X1692241Y2035114D02*
G01X1691652Y2036029D01*
G01X1690555Y2036943D01*
G01X1689387Y2037400D01*
G01X1687121D01*
G01X1686024Y2036943D01*
G01X1684856Y2036029D01*
G01X1684338Y2035114D01*
G01X1683759Y2033743D01*
G01Y2031457D01*
G01X1684338Y2030086D01*
G01X1684856Y2029171D01*
G01X1686024Y2028257D01*
G01X1687121Y2027800D01*
G01X1689387D01*
G01X1690555Y2028257D01*
G01X1691652Y2029171D01*
G01X1692241Y2030086D01*
G01X1697464Y2037400D02*
G01Y2027800D01*
G01X1697464Y2037400D02*
G01X1703285D01*
G01X1705225Y2036943D01*
G01X1705876Y2036486D01*
G01X1706526Y2035571D01*
G01Y2034657D01*
G01X1705876Y2033743D01*
G01X1705225Y2033286D01*
G01X1703285Y2032829D01*
G01X1697464D01*
G01X1701995Y2032829D02*
G01X1706526Y2027800D01*
G01X1713354Y2035571D02*
G01X1714827Y2036029D01*
G01X1715995Y2037400D01*
G01Y2027800D01*
G01X1713283Y2027800D02*
G01X1718717D01*
M02*
