G71*
G90*
G04 Quadcept GERBER*
%MOMM*%
%FSLAX44Y44*%
%ADD10C,0.15*%
%ADD11C,0.6*%
%ADD12C,1.4*%
%ADD13C,1.5*%
%ADD14R,1.19X1.19*%
%ADD15R,1.4X1.4*%
%ADD16R,1.5X1.5*%
%ADD17R,1.01X1.21*%
%ADD18R,1.21X1.01*%
%ADD19R,1.47X0.35*%
%ADD20R,1.9X0.55*%
G54D10*
G01X1383000Y2016000D02*
G01X1382000D01*
G01X1368500Y2029500D01*
G01X1291000D01*
G01X1383000Y2016000D02*
G01X1384000D01*
G01X1394400Y2026400D01*
G01X1407800D01*
G01X1382000Y1991000D02*
G01X1383000Y1992000D01*
G01Y2016000D01*
G01X1382000Y1973000D02*
G01Y1991000D01*
G01X1382000Y1973000D02*
G01X1383000D01*
G01X1385650Y1970350D01*
G01X1434790D01*
G01X1407800Y2026400D02*
G01Y2059800D01*
G01X1428000Y2080000D01*
G01X1480000D01*
G01X1481000Y2081000D01*
G01X1501000D01*
G01X1503290Y2078710D01*
G01X1549300D01*
G01X1550000D01*
G01X1571780Y2100490D01*
G01X1658000D01*
G01X1658490Y2100000D01*
G01X1659000D01*
G01X1751410Y2007590D01*
G01Y1956100D01*
G01X1485400Y2191700D02*
G01X1381000Y2087300D01*
G01Y2087000D01*
G01X1281900Y2054900D02*
G01X1291000D01*
G01X1493210Y1989850D02*
G01X1464000D01*
G01Y1943000D01*
G01X1214000D01*
G01Y2118000D01*
G01X1217000Y2121000D01*
G01X1347000D01*
G01X1381000Y2087000D01*
G01X1658000Y2117510D02*
G01Y2118510D01*
G01X1584810Y2191700D01*
G01X1533400D01*
G01X1493210Y1970350D02*
G01X1502350D01*
G01X1504000Y1972000D01*
G01Y1973000D01*
G01X1540200Y2009200D01*
G01X1558990D01*
G01X1493210Y1983350D02*
G01Y1983580D01*
G01X1492395Y1984395D01*
G01Y1984605D01*
G01X1492443Y1984653D01*
G01X1493000D01*
G01X1493653Y1984000D01*
G01X1723290Y1945000D02*
G01X1482000D01*
G01Y1982000D01*
G01X1483350Y1983350D01*
G01X1493210D01*
G01X1579810Y2009200D02*
G01Y2009380D01*
G01X1549300Y2039890D01*
G01Y2061690D01*
G01X1510000Y2007000D02*
G01Y1984000D01*
G01X1502850Y1976850D01*
G01X1493210D01*
G01X1734390Y1956100D02*
G01X1723290Y1945000D01*
G01X1663300Y2121810D02*
G01X1650415Y2126095D01*
G01X1652700Y2121810D02*
G01X1650415Y2126095D01*
G01X1662550Y2121810D02*
G01X1650415Y2126095D01*
G01X1661800Y2121810D02*
G01X1650415Y2126095D01*
G01X1661050Y2121810D02*
G01X1650415Y2126095D01*
G01X1660300Y2121810D02*
G01X1650415Y2126095D01*
G01X1659550Y2121810D02*
G01X1650415Y2126095D01*
G01X1658800Y2121810D02*
G01X1650415Y2126095D01*
G01X1658050Y2121810D02*
G01X1650415Y2126095D01*
G01X1657300Y2121810D02*
G01X1650415Y2126095D01*
G01X1656550Y2121810D02*
G01X1650415Y2126095D01*
G01X1655800Y2121810D02*
G01X1650415Y2126095D01*
G01X1655050Y2121810D02*
G01X1650415Y2126095D01*
G01X1654300Y2121810D02*
G01X1650415Y2126095D01*
G01X1653550Y2121810D02*
G01X1650415Y2126095D01*
G01X1542150Y2189700D02*
G01X1545450Y2191700D01*
G01X1542150Y2193700D02*
G01X1545450Y2191700D01*
G01X1542150Y2190450D02*
G01X1545450Y2191700D01*
G01X1542150Y2191200D02*
G01X1545450Y2191700D01*
G01X1542150Y2191950D02*
G01X1545450Y2191700D01*
G01X1542150Y2192700D02*
G01X1545450Y2191700D01*
G01X1285860Y2059276D02*
G01X1282135Y2054900D01*
G01X1285860Y2050524D02*
G01X1282135Y2054900D01*
G01X1285860Y2058526D02*
G01X1282135Y2054900D01*
G01X1285860Y2057776D02*
G01X1282135Y2054900D01*
G01X1285860Y2057026D02*
G01X1282135Y2054900D01*
G01X1285860Y2056276D02*
G01X1282135Y2054900D01*
G01X1285860Y2055526D02*
G01X1282135Y2054900D01*
G01X1285860Y2054776D02*
G01X1282135Y2054900D01*
G01X1285860Y2054026D02*
G01X1282135Y2054900D01*
G01X1285860Y2053276D02*
G01X1282135Y2054900D01*
G01X1285860Y2052526D02*
G01X1282135Y2054900D01*
G01X1285860Y2051776D02*
G01X1282135Y2054900D01*
G01X1486610Y1990850D02*
G01X1484510Y1989850D01*
G01X1486610Y1988850D02*
G01X1484510Y1989850D01*
G01X1486610Y1990100D02*
G01X1484510Y1989850D01*
G01X1381857Y2089081D02*
G01X1376863Y2091137D01*
G01X1378919Y2086143D02*
G01X1376863Y2091137D01*
G01X1381326Y2088550D02*
G01X1376863Y2091137D01*
G01X1380796Y2088020D02*
G01X1376863Y2091137D01*
G01X1380266Y2087490D02*
G01X1376863Y2091137D01*
G01X1379735Y2086959D02*
G01X1376863Y2091137D01*
G01X1383111Y2086220D02*
G01X1384979Y2091279D01*
G01X1380069Y2089048D02*
G01X1384979Y2091279D01*
G01X1382561Y2086731D02*
G01X1384979Y2091279D01*
G01X1382012Y2087242D02*
G01X1384979Y2091279D01*
G01X1381463Y2087753D02*
G01X1384979Y2091279D01*
G01X1380914Y2088263D02*
G01X1384979Y2091279D01*
G01X1476650Y2189700D02*
G01X1481067Y2187367D01*
G01X1494150Y2189700D02*
G01X1481067Y2187367D01*
G01X1477400Y2189700D02*
G01X1481067Y2187367D01*
G01X1478150Y2189700D02*
G01X1481067Y2187367D01*
G01X1478900Y2189700D02*
G01X1481067Y2187367D01*
G01X1479650Y2189700D02*
G01X1481067Y2187367D01*
G01X1480400Y2189700D02*
G01X1481067Y2187367D01*
G01X1481150Y2189700D02*
G01X1481067Y2187367D01*
G01X1481900Y2189700D02*
G01X1481067Y2187367D01*
G01X1482650Y2189700D02*
G01X1481067Y2187367D01*
G01X1483400Y2189700D02*
G01X1481067Y2187367D01*
G01X1484150Y2189700D02*
G01X1481067Y2187367D01*
G01X1484900Y2189700D02*
G01X1481067Y2187367D01*
G01X1485650Y2189700D02*
G01X1481067Y2187367D01*
G01X1486400Y2189700D02*
G01X1481067Y2187367D01*
G01X1487150Y2189700D02*
G01X1481067Y2187367D01*
G01X1487900Y2189700D02*
G01X1481067Y2187367D01*
G01X1488650Y2189700D02*
G01X1481067Y2187367D01*
G01X1489400Y2189700D02*
G01X1481067Y2187367D01*
G01X1490150Y2189700D02*
G01X1481067Y2187367D01*
G01X1490900Y2189700D02*
G01X1481067Y2187367D01*
G01X1491650Y2189700D02*
G01X1481067Y2187367D01*
G01X1492400Y2189700D02*
G01X1481067Y2187367D01*
G01X1493150Y2189700D02*
G01X1481067Y2187367D01*
G01X1499810Y1969350D02*
G01X1501910Y1970350D01*
G01X1499810Y1971350D02*
G01X1501910Y1970350D01*
G01X1499810Y1970100D02*
G01X1501910Y1970350D01*
G01X1553790Y2014400D02*
G01X1546650Y2009200D01*
G01X1553790Y2004000D02*
G01X1546650Y2009200D01*
G01X1553790Y2013650D02*
G01X1546650Y2009200D01*
G01X1553790Y2012900D02*
G01X1546650Y2009200D01*
G01X1553790Y2012150D02*
G01X1546650Y2009200D01*
G01X1553790Y2011400D02*
G01X1546650Y2009200D01*
G01X1553790Y2010650D02*
G01X1546650Y2009200D01*
G01X1553790Y2009900D02*
G01X1546650Y2009200D01*
G01X1553790Y2009150D02*
G01X1546650Y2009200D01*
G01X1553790Y2008400D02*
G01X1546650Y2009200D01*
G01X1553790Y2007650D02*
G01X1546650Y2009200D01*
G01X1553790Y2006900D02*
G01X1546650Y2009200D01*
G01X1553790Y2006150D02*
G01X1546650Y2009200D01*
G01X1553790Y2005400D02*
G01X1546650Y2009200D01*
G01X1585010Y2014400D02*
G01X1569741Y2019449D01*
G01X1574610Y2014400D02*
G01X1569741Y2019449D01*
G01X1584260Y2014400D02*
G01X1569741Y2019449D01*
G01X1583510Y2014400D02*
G01X1569741Y2019449D01*
G01X1582760Y2014400D02*
G01X1569741Y2019449D01*
G01X1582010Y2014400D02*
G01X1569741Y2019449D01*
G01X1581260Y2014400D02*
G01X1569741Y2019449D01*
G01X1580510Y2014400D02*
G01X1569741Y2019449D01*
G01X1579760Y2014400D02*
G01X1569741Y2019449D01*
G01X1579010Y2014400D02*
G01X1569741Y2019449D01*
G01X1578260Y2014400D02*
G01X1569741Y2019449D01*
G01X1577510Y2014400D02*
G01X1569741Y2019449D01*
G01X1576760Y2014400D02*
G01X1569741Y2019449D01*
G01X1576010Y2014400D02*
G01X1569741Y2019449D01*
G01X1544000Y2057390D02*
G01X1549300Y2051330D01*
G01X1554600Y2057390D02*
G01X1549300Y2051330D01*
G01X1544750Y2057390D02*
G01X1549300Y2051330D01*
G01X1545500Y2057390D02*
G01X1549300Y2051330D01*
G01X1546250Y2057390D02*
G01X1549300Y2051330D01*
G01X1547000Y2057390D02*
G01X1549300Y2051330D01*
G01X1547750Y2057390D02*
G01X1549300Y2051330D01*
G01X1548500Y2057390D02*
G01X1549300Y2051330D01*
G01X1549250Y2057390D02*
G01X1549300Y2051330D01*
G01X1550000Y2057390D02*
G01X1549300Y2051330D01*
G01X1550750Y2057390D02*
G01X1549300Y2051330D01*
G01X1551500Y2057390D02*
G01X1549300Y2051330D01*
G01X1552250Y2057390D02*
G01X1549300Y2051330D01*
G01X1553000Y2057390D02*
G01X1549300Y2051330D01*
G01X1553750Y2057390D02*
G01X1549300Y2051330D01*
G01X1414550Y2033150D02*
G01X1407800Y2042150D01*
G01X1401050Y2033150D02*
G01X1407800Y2042150D01*
G01X1413800Y2033150D02*
G01X1407800Y2042150D01*
G01X1413050Y2033150D02*
G01X1407800Y2042150D01*
G01X1412300Y2033150D02*
G01X1407800Y2042150D01*
G01X1411550Y2033150D02*
G01X1407800Y2042150D01*
G01X1410800Y2033150D02*
G01X1407800Y2042150D01*
G01X1410050Y2033150D02*
G01X1407800Y2042150D01*
G01X1409300Y2033150D02*
G01X1407800Y2042150D01*
G01X1408550Y2033150D02*
G01X1407800Y2042150D01*
G01X1407800Y2033150D02*
G01Y2042150D01*
G01X1407050Y2033150D02*
G01X1407800Y2042150D01*
G01X1406300Y2033150D02*
G01X1407800Y2042150D01*
G01X1405550Y2033150D02*
G01X1407800Y2042150D01*
G01X1404800Y2033150D02*
G01X1407800Y2042150D01*
G01X1404050Y2033150D02*
G01X1407800Y2042150D01*
G01X1403300Y2033150D02*
G01X1407800Y2042150D01*
G01X1402550Y2033150D02*
G01X1407800Y2042150D01*
G01X1401800Y2033150D02*
G01X1407800Y2042150D01*
G01X1401050Y2033150D02*
G01X1395065Y2026400D01*
G01X1401050Y2019650D02*
G01X1395065Y2026400D01*
G01X1401050Y2032400D02*
G01X1395065Y2026400D01*
G01X1401050Y2031650D02*
G01X1395065Y2026400D01*
G01X1401050Y2030900D02*
G01X1395065Y2026400D01*
G01X1401050Y2030150D02*
G01X1395065Y2026400D01*
G01X1401050Y2029400D02*
G01X1395065Y2026400D01*
G01X1401050Y2028650D02*
G01X1395065Y2026400D01*
G01X1401050Y2027900D02*
G01X1395065Y2026400D01*
G01X1401050Y2027150D02*
G01X1395065Y2026400D01*
G01X1401050Y2026400D02*
G01X1395065D01*
G01X1401050Y2025650D02*
G01X1395065Y2026400D01*
G01X1401050Y2024900D02*
G01X1395065Y2026400D01*
G01X1401050Y2024150D02*
G01X1395065Y2026400D01*
G01X1401050Y2023400D02*
G01X1395065Y2026400D01*
G01X1401050Y2022650D02*
G01X1395065Y2026400D01*
G01X1401050Y2021900D02*
G01X1395065Y2026400D01*
G01X1401050Y2021150D02*
G01X1395065Y2026400D01*
G01X1401050Y2020400D02*
G01X1395065Y2026400D01*
G01X1293893Y2023401D02*
G01X1306750Y2029500D01*
G01X1293893Y2035599D02*
G01X1306750Y2029500D01*
G01X1293893Y2024151D02*
G01X1306750Y2029500D01*
G01X1293893Y2024901D02*
G01X1306750Y2029500D01*
G01X1293893Y2025651D02*
G01X1306750Y2029500D01*
G01X1293893Y2026401D02*
G01X1306750Y2029500D01*
G01X1293893Y2027151D02*
G01X1306750Y2029500D01*
G01X1293893Y2027901D02*
G01X1306750Y2029500D01*
G01X1293893Y2028651D02*
G01X1306750Y2029500D01*
G01X1293893Y2029401D02*
G01X1306750Y2029500D01*
G01X1293893Y2030151D02*
G01X1306750Y2029500D01*
G01X1293893Y2030901D02*
G01X1306750Y2029500D01*
G01X1293893Y2031651D02*
G01X1306750Y2029500D01*
G01X1293893Y2032401D02*
G01X1306750Y2029500D01*
G01X1293893Y2033151D02*
G01X1306750Y2029500D01*
G01X1293893Y2033901D02*
G01X1306750Y2029500D01*
G01X1293893Y2034651D02*
G01X1306750Y2029500D01*
G01X1652700Y2096190D02*
G01X1667095Y2091905D01*
G01X1663300Y2096190D02*
G01X1667095Y2091905D01*
G01X1653450Y2096190D02*
G01X1667095Y2091905D01*
G01X1654200Y2096190D02*
G01X1667095Y2091905D01*
G01X1654950Y2096190D02*
G01X1667095Y2091905D01*
G01X1655700Y2096190D02*
G01X1667095Y2091905D01*
G01X1656450Y2096190D02*
G01X1667095Y2091905D01*
G01X1657200Y2096190D02*
G01X1667095Y2091905D01*
G01X1657950Y2096190D02*
G01X1667095Y2091905D01*
G01X1658700Y2096190D02*
G01X1667095Y2091905D01*
G01X1659450Y2096190D02*
G01X1667095Y2091905D01*
G01X1660200Y2096190D02*
G01X1667095Y2091905D01*
G01X1660950Y2096190D02*
G01X1667095Y2091905D01*
G01X1661700Y2096190D02*
G01X1667095Y2091905D01*
G01X1662450Y2096190D02*
G01X1667095Y2091905D01*
G01X1428190Y1971350D02*
G01X1426090Y1970350D01*
G01X1428190Y1969350D02*
G01X1426090Y1970350D01*
G01X1428190Y1970600D02*
G01X1426090Y1970350D01*
G01X1755710Y1961400D02*
G01X1751410Y1967460D01*
G01X1747110Y1961400D02*
G01X1751410Y1967460D01*
G01X1754960Y1961400D02*
G01X1751410Y1967460D01*
G01X1754210Y1961400D02*
G01X1751410Y1967460D01*
G01X1753460Y1961400D02*
G01X1751410Y1967460D01*
G01X1752710Y1961400D02*
G01X1751410Y1967460D01*
G01X1751960Y1961400D02*
G01X1751410Y1967460D01*
G01X1751210Y1961400D02*
G01X1751410Y1967460D01*
G01X1750460Y1961400D02*
G01X1751410Y1967460D01*
G01X1749710Y1961400D02*
G01X1751410Y1967460D01*
G01X1748960Y1961400D02*
G01X1751410Y1967460D01*
G01X1748210Y1961400D02*
G01X1751410Y1967460D01*
G01X1544000Y2083010D02*
G01X1537940Y2078710D01*
G01X1544000Y2074410D02*
G01X1537940Y2078710D01*
G01X1544000Y2082260D02*
G01X1537940Y2078710D01*
G01X1544000Y2081510D02*
G01X1537940Y2078710D01*
G01X1544000Y2080760D02*
G01X1537940Y2078710D01*
G01X1544000Y2080010D02*
G01X1537940Y2078710D01*
G01X1544000Y2079260D02*
G01X1537940Y2078710D01*
G01X1544000Y2078510D02*
G01X1537940Y2078710D01*
G01X1544000Y2077760D02*
G01X1537940Y2078710D01*
G01X1544000Y2077010D02*
G01X1537940Y2078710D01*
G01X1544000Y2076260D02*
G01X1537940Y2078710D01*
G01X1544000Y2075510D02*
G01X1537940Y2078710D01*
G01X1652700Y2104790D02*
G01X1646640Y2100490D01*
G01X1652700Y2096190D02*
G01X1646640Y2100490D01*
G01X1652700Y2104040D02*
G01X1646640Y2100490D01*
G01X1652700Y2103290D02*
G01X1646640Y2100490D01*
G01X1652700Y2102540D02*
G01X1646640Y2100490D01*
G01X1652700Y2101790D02*
G01X1646640Y2100490D01*
G01X1652700Y2101040D02*
G01X1646640Y2100490D01*
G01X1652700Y2100290D02*
G01X1646640Y2100490D01*
G01X1652700Y2099540D02*
G01X1646640Y2100490D01*
G01X1652700Y2098790D02*
G01X1646640Y2100490D01*
G01X1652700Y2098040D02*
G01X1646640Y2100490D01*
G01X1652700Y2097290D02*
G01X1646640Y2100490D01*
G01X1554600Y2083010D02*
G01X1558585Y2087295D01*
G01X1544000Y2083010D02*
G01X1558585Y2087295D01*
G01X1553850Y2083010D02*
G01X1558585Y2087295D01*
G01X1553100Y2083010D02*
G01X1558585Y2087295D01*
G01X1552350Y2083010D02*
G01X1558585Y2087295D01*
G01X1551600Y2083010D02*
G01X1558585Y2087295D01*
G01X1550850Y2083010D02*
G01X1558585Y2087295D01*
G01X1550100Y2083010D02*
G01X1558585Y2087295D01*
G01X1549350Y2083010D02*
G01X1558585Y2087295D01*
G01X1548600Y2083010D02*
G01X1558585Y2087295D01*
G01X1547850Y2083010D02*
G01X1558585Y2087295D01*
G01X1547100Y2083010D02*
G01X1558585Y2087295D01*
G01X1546350Y2083010D02*
G01X1558585Y2087295D01*
G01X1545600Y2083010D02*
G01X1558585Y2087295D01*
G01X1544850Y2083010D02*
G01X1558585Y2087295D01*
G01X1730090Y1961400D02*
G01X1725805Y1947515D01*
G01X1730090Y1950800D02*
G01X1725805Y1947515D01*
G01X1730090Y1960650D02*
G01X1725805Y1947515D01*
G01X1730090Y1959900D02*
G01X1725805Y1947515D01*
G01X1730090Y1959150D02*
G01X1725805Y1947515D01*
G01X1730090Y1958400D02*
G01X1725805Y1947515D01*
G01X1730090Y1957650D02*
G01X1725805Y1947515D01*
G01X1730090Y1956900D02*
G01X1725805Y1947515D01*
G01X1730090Y1956150D02*
G01X1725805Y1947515D01*
G01X1730090Y1955400D02*
G01X1725805Y1947515D01*
G01X1730090Y1954650D02*
G01X1725805Y1947515D01*
G01X1730090Y1953900D02*
G01X1725805Y1947515D01*
G01X1730090Y1953150D02*
G01X1725805Y1947515D01*
G01X1730090Y1952400D02*
G01X1725805Y1947515D01*
G01X1730090Y1951650D02*
G01X1725805Y1947515D01*
G01X1486610Y1984350D02*
G01X1484510Y1983350D01*
G01X1486610Y1982350D02*
G01X1484510Y1983350D01*
G01X1486610Y1983600D02*
G01X1484510Y1983350D01*
G01X1499810Y1984350D02*
G01X1493030Y1984623D01*
G01X1486610Y1984350D02*
G01X1493030Y1984623D01*
G01X1499060Y1984350D02*
G01X1493030Y1984623D01*
G01X1498310Y1984350D02*
G01X1493030Y1984623D01*
G01X1497560Y1984350D02*
G01X1493030Y1984623D01*
G01X1496810Y1984350D02*
G01X1493030Y1984623D01*
G01X1496060Y1984350D02*
G01X1493030Y1984623D01*
G01X1495310Y1984350D02*
G01X1493030Y1984623D01*
G01X1494560Y1984350D02*
G01X1493030Y1984623D01*
G01X1493810Y1984350D02*
G01X1493030Y1984623D01*
G01X1493060Y1984350D02*
G01X1493030Y1984623D01*
G01X1492310Y1984350D02*
G01X1493030Y1984623D01*
G01X1491560Y1984350D02*
G01X1493030Y1984623D01*
G01X1490810Y1984350D02*
G01X1493030Y1984623D01*
G01X1490060Y1984350D02*
G01X1493030Y1984623D01*
G01X1489310Y1984350D02*
G01X1493030Y1984623D01*
G01X1488560Y1984350D02*
G01X1493030Y1984623D01*
G01X1487810Y1984350D02*
G01X1493030Y1984623D01*
G01X1507923Y2006135D02*
G01X1510000Y2001150D01*
G01X1512077Y2006135D02*
G01X1510000Y2001150D01*
G01X1508673Y2006135D02*
G01X1510000Y2001150D01*
G01X1509423Y2006135D02*
G01X1510000Y2001150D01*
G01X1510173Y2006135D02*
G01X1510000Y2001150D01*
G01X1510923Y2006135D02*
G01X1510000Y2001150D01*
G01X1499810Y1975850D02*
G01X1501910Y1976850D01*
G01X1499810Y1977850D02*
G01X1501910Y1976850D01*
G01X1499810Y1976600D02*
G01X1501910Y1976850D01*
G54D11*
X1510000Y2007000D03*
X1381000Y2087000D03*
G54D12*
X1658900Y2017100D03*
G54D13*
X1291000Y2029500D03*
Y2054900D03*
X1407800Y2077200D03*
G54D14*
X1558990Y2009200D03*
X1579810D03*
G54D15*
X1658900Y1991700D03*
G54D16*
X1407800Y2026400D03*
X1433200Y2051800D03*
G54D17*
X1734390Y1956100D03*
X1751410D03*
G54D18*
X1549300Y2061690D03*
Y2078710D03*
X1658000Y2100490D03*
Y2117510D03*
G54D19*
X1434790Y1970350D03*
X1493210D03*
X1434790Y1976850D03*
X1493210D03*
X1434790Y1983350D03*
X1493210D03*
X1434790Y1989850D03*
X1493210D03*
G54D20*
X1485400Y2191700D03*
X1533400D03*
M02*
